<svg width="100%" height="100%" viewBox="0 0 48 48">
  <g>
    <path id="twitter_4_" d="M43,0H5C2.25,0,0,2.25,0,5v38c0,2.75,2.25,5,5,5h38c2.75,0,5-2.25,5-5V5C48,2.25,45.75,0,43,0z M38.09,25.457c-0.293,1.559-1.188,3.941-3.799,6.553c-4.549,4.549-11.082,5.541-13.408,5.541s-9.852-0.342-15.049-7.457 c0,0,6.814,6.088,13.654-0.342c-3.23,0.393-3.438-2.506-1.205-2.873c-3.283-0.137-3.83-1.23-4.24-2.189 c-0.41-0.957,1.061-0.992,2.223-1.127c-2.24-0.779-4.078-2.164-3.865-3.602c0.137-0.564,2.053-0.059,1.916-0.471 c-0.137-0.41-3.557-1.914-2.873-4.65c3.078,1.572,8.275,2.461,12.143,6.531c1.195-3.385,3.176-7.781,5.301-8.721 c2.125-0.941,3.898-0.752,4.379,0.205c0.479,0.957-2.941,1.711-2.941,1.711c4.055-0.391,6.891,3.281,7.668,6.725 c1.842,1.088,4.234,0.047,4.234,0.047s-0.514,1.846-3.625,2.121c-0.41,0.137,1.709,0.547,3.898,0.307 C41.361,25.285,39.238,25.477,38.09,25.457z"/>
  </g>
</svg>